<svg width="1024" height="1024" viewBox="0 0 1024 1024" fill="none" xmlns="http://www.w3.org/2000/svg">
  <defs>
    <radialGradient id="bg" cx="50%" cy="38%" r="74%">
      <stop offset="0%" stop-color="#234F43"/>
      <stop offset="46%" stop-color="#101B18"/>
      <stop offset="100%" stop-color="#050706"/>
    </radialGradient>
    <linearGradient id="gold" x1="200" y1="160" x2="812" y2="864" gradientUnits="userSpaceOnUse">
      <stop stop-color="#FFF2B8"/>
      <stop offset="0.48" stop-color="#D8B45F"/>
      <stop offset="1" stop-color="#8A5F26"/>
    </linearGradient>
    <linearGradient id="jade" x1="336" y1="300" x2="698" y2="744" gradientUnits="userSpaceOnUse">
      <stop stop-color="#A7E2CF"/>
      <stop offset="1" stop-color="#426F61"/>
    </linearGradient>
    <filter id="shadow" x="112" y="104" width="800" height="840" filterUnits="userSpaceOnUse" color-interpolation-filters="sRGB">
      <feDropShadow dx="0" dy="36" stdDeviation="34" flood-color="#000000" flood-opacity="0.5"/>
    </filter>
  </defs>

  <rect width="1024" height="1024" fill="url(#bg)"/>
  <circle cx="512" cy="512" r="386" fill="#07100E" opacity="0.48"/>
  <circle cx="512" cy="512" r="356" stroke="#FFF4C6" stroke-opacity="0.12" stroke-width="4"/>

  <g filter="url(#shadow)">
    <circle cx="512" cy="512" r="316" stroke="url(#gold)" stroke-width="24"/>
    <circle cx="512" cy="512" r="248" stroke="#D8B45F" stroke-opacity="0.24" stroke-width="8"/>

    <g id="trigram" stroke="url(#gold)" stroke-width="18" stroke-linecap="round">
      <path d="M462 188H562"/>
      <path d="M462 226H562"/>
      <path d="M462 264H562"/>
    </g>
    <g transform="rotate(45 512 512)" stroke="url(#gold)" stroke-width="18" stroke-linecap="round">
      <path d="M462 188H562"/>
      <path d="M462 226H500"/>
      <path d="M524 226H562"/>
      <path d="M462 264H562"/>
    </g>
    <g transform="rotate(90 512 512)" stroke="url(#gold)" stroke-width="18" stroke-linecap="round">
      <path d="M462 188H500"/>
      <path d="M524 188H562"/>
      <path d="M462 226H562"/>
      <path d="M462 264H500"/>
      <path d="M524 264H562"/>
    </g>
    <g transform="rotate(135 512 512)" stroke="url(#gold)" stroke-width="18" stroke-linecap="round">
      <path d="M462 188H500"/>
      <path d="M524 188H562"/>
      <path d="M462 226H500"/>
      <path d="M524 226H562"/>
      <path d="M462 264H562"/>
    </g>
    <g transform="rotate(180 512 512)" stroke="url(#gold)" stroke-width="18" stroke-linecap="round">
      <path d="M462 188H500"/>
      <path d="M524 188H562"/>
      <path d="M462 226H500"/>
      <path d="M524 226H562"/>
      <path d="M462 264H500"/>
      <path d="M524 264H562"/>
    </g>
    <g transform="rotate(225 512 512)" stroke="url(#gold)" stroke-width="18" stroke-linecap="round">
      <path d="M462 188H562"/>
      <path d="M462 226H500"/>
      <path d="M524 226H562"/>
      <path d="M462 264H500"/>
      <path d="M524 264H562"/>
    </g>
    <g transform="rotate(270 512 512)" stroke="url(#gold)" stroke-width="18" stroke-linecap="round">
      <path d="M462 188H500"/>
      <path d="M524 188H562"/>
      <path d="M462 226H562"/>
      <path d="M462 264H562"/>
    </g>
    <g transform="rotate(315 512 512)" stroke="url(#gold)" stroke-width="18" stroke-linecap="round">
      <path d="M462 188H562"/>
      <path d="M462 226H562"/>
      <path d="M462 264H500"/>
      <path d="M524 264H562"/>
    </g>

    <circle cx="512" cy="512" r="154" fill="url(#gold)"/>
    <path d="M512 358C597 358 666 427 666 512C666 597 597 666 512 666C554 666 589 632 589 589C589 547 554 512 512 512C470 512 435 477 435 435C435 392 470 358 512 358Z" fill="#08100E"/>
    <path d="M512 358C470 358 435 392 435 435C435 477 470 512 512 512C554 512 589 547 589 589C589 632 554 666 512 666C427 666 358 597 358 512C358 427 427 358 512 358Z" fill="#F4D77D"/>
    <circle cx="512" cy="435" r="28" fill="#F4D77D"/>
    <circle cx="512" cy="589" r="28" fill="#08100E"/>
    <circle cx="512" cy="512" r="158" stroke="url(#jade)" stroke-width="10"/>
  </g>
</svg>
