<svg width="1024" height="1024" viewBox="0 0 1024 1024" fill="none" xmlns="http://www.w3.org/2000/svg">
  <defs>
    <radialGradient id="bgGlow" cx="50%" cy="36%" r="70%">
      <stop offset="0%" stop-color="#315f50"/>
      <stop offset="45%" stop-color="#16231f"/>
      <stop offset="100%" stop-color="#080b0a"/>
    </radialGradient>
    <linearGradient id="gold" x1="250" y1="190" x2="780" y2="842" gradientUnits="userSpaceOnUse">
      <stop stop-color="#FFF0AF"/>
      <stop offset="0.48" stop-color="#D9B661"/>
      <stop offset="1" stop-color="#8E642B"/>
    </linearGradient>
    <linearGradient id="jade" x1="306" y1="256" x2="736" y2="782" gradientUnits="userSpaceOnUse">
      <stop stop-color="#A7E2CF"/>
      <stop offset="1" stop-color="#426F61"/>
    </linearGradient>
    <filter id="softShadow" x="120" y="120" width="784" height="824" filterUnits="userSpaceOnUse" color-interpolation-filters="sRGB">
      <feDropShadow dx="0" dy="34" stdDeviation="34" flood-color="#000000" flood-opacity="0.46"/>
    </filter>
  </defs>
  <rect width="1024" height="1024" fill="url(#bgGlow)"/>
  <path d="M154 126C318 186 630 90 870 222C808 126 684 62 512 62C348 62 232 88 154 126Z" fill="#FFF4C6" opacity="0.08"/>
  <circle cx="512" cy="520" r="326" fill="#0B0F0E" opacity="0.36"/>
  <g filter="url(#softShadow)">
    <circle cx="512" cy="500" r="286" stroke="url(#gold)" stroke-width="30"/>
    <circle cx="512" cy="500" r="226" stroke="#D9B661" stroke-opacity="0.28" stroke-width="10"/>
    <circle cx="512" cy="500" r="150" fill="#111714" stroke="url(#jade)" stroke-width="12"/>
    <path d="M316 498C374 384 434 310 512 258C590 310 650 384 708 498C650 612 590 686 512 738C434 686 374 612 316 498Z" stroke="url(#gold)" stroke-width="18" stroke-linejoin="round"/>
    <rect x="386" y="404" width="252" height="34" rx="17" fill="url(#gold)"/>
    <rect x="386" y="492" width="98" height="34" rx="17" fill="url(#gold)"/>
    <rect x="540" y="492" width="98" height="34" rx="17" fill="url(#gold)"/>
    <rect x="386" y="580" width="252" height="34" rx="17" fill="url(#gold)"/>
  </g>
  <circle cx="512" cy="500" r="354" stroke="#FFF4C6" stroke-opacity="0.12" stroke-width="3"/>
  <path d="M234 768C346 858 636 892 790 734" stroke="#91D1BD" stroke-width="10" stroke-linecap="round" opacity="0.28"/>
</svg>
